<?xml version="1.0" encoding="utf-8"?>
<!-- Generator: Adobe Illustrator 27.9.0, SVG Export Plug-In . SVG Version: 6.00 Build 0)  -->
<svg version="1.1" id="Layer_1" xmlns="http://www.w3.org/2000/svg" xmlns:xlink="http://www.w3.org/1999/xlink" x="0px" y="0px"
	 viewBox="0 0 52 52" style="enable-background:new 0 0 52 52;" xml:space="preserve">
<style type="text/css">
	.st0{fill:#F5F5F5;stroke:#B2B2B2;stroke-miterlimit:10;}
</style>
<path class="st0" d="M25.6,1.4C11.5,1.4,0,12.5,0,26.1s11.5,24.7,25.5,24.7s25.5-11.1,25.5-24.7S39.7,1.4,25.6,1.4z M37.8,20.4
	l-14.5,14C23,34.8,22.5,35,22,35c-0.5,0-1-0.2-1.4-0.5l-7.2-7c-0.7-0.7-0.7-1.9,0-2.6c0.7-0.7,2-0.7,2.7,0l5.9,5.7l13.1-12.7
	c0.7-0.7,2-0.7,2.7,0C38.5,18.5,38.5,19.7,37.8,20.4z"/>
</svg>
