<svg width="52" height="52" viewBox="0 0 53 52" fill="none" xmlns="http://www.w3.org/2000/svg">
<path d="M26.0817 0.898438C11.7384 0.898438 0.050293 12.2215 0.050293 26.1169C0.050293 40.0123 11.7384 51.3354 26.0817 51.3354C40.425 51.3354 52.1131 40.0123 52.1131 26.1169C52.1131 12.2215 40.425 0.898438 26.0817 0.898438ZM38.5247 20.3167L23.7649 34.6155C23.4005 34.9686 22.9059 35.1703 22.3852 35.1703C21.8646 35.1703 21.37 34.9686 21.0056 34.6155L13.6387 27.4787C12.8838 26.7474 12.8838 25.5369 13.6387 24.8055C14.3936 24.0742 15.6431 24.0742 16.398 24.8055L22.3852 30.6058L35.7654 17.6435C36.5203 16.9122 37.7698 16.9122 38.5247 17.6435C39.2796 18.3748 39.2796 19.5601 38.5247 20.3167Z" fill="#FAEFB7"/>
</svg>
