<svg width="16" height="16" viewBox="0 0 15 16" fill="none" xmlns="http://www.w3.org/2000/svg">
<path d="M6.42174 1.81019C6.67398 0.688212 8.27283 0.688212 8.52507 1.81019V1.81019C8.70463 2.60886 9.67387 2.92378 10.2886 2.38319V2.38319C11.1521 1.62375 12.4456 2.56353 11.9902 3.61949V3.61949C11.666 4.37117 12.265 5.19566 13.0801 5.11962V5.11962C14.2251 5.01281 14.7192 6.5334 13.7301 7.12001V7.12001C13.026 7.53758 13.026 8.5567 13.7301 8.97427V8.97427C14.7192 9.56087 14.2251 11.0815 13.0801 10.9747V10.9747C12.265 10.8986 11.666 11.7231 11.9902 12.4748V12.4748C12.4456 13.5307 11.1521 14.4705 10.2886 13.7111V13.7111C9.67387 13.1705 8.70463 13.4854 8.52507 14.2841V14.2841C8.27283 15.4061 6.67398 15.4061 6.42174 14.2841V14.2841C6.24219 13.4854 5.27294 13.1705 4.65823 13.7111V13.7111C3.79469 14.4705 2.50119 13.5307 2.9566 12.4748V12.4748C3.28079 11.7231 2.68176 10.8986 1.8667 10.9747V10.9747C0.721689 11.0815 0.227617 9.56087 1.21673 8.97427V8.97427C1.92083 8.5567 1.92083 7.53757 1.21673 7.12001V7.12001C0.227617 6.5334 0.72169 5.01281 1.8667 5.11962V5.11962C2.68176 5.19566 3.28079 4.37117 2.9566 3.61949V3.61949C2.50119 2.56353 3.79469 1.62375 4.65823 2.38319V2.38319C5.27294 2.92378 6.24219 2.60886 6.42174 1.81019V1.81019Z" fill="#FFA800"/>
</svg>

