<svg width="47" height="67" viewBox="0 0 47 67" fill="none" xmlns="http://www.w3.org/2000/svg">
    <path d="M5 42.5H10.5H41.5V50.5C41.5 57 34.5 66 24 66C13.5 66 5 57 5 50.5V42.5Z" fill="#FAEFB7" stroke="#F5F5F5" stroke-width="2"/>
    <path d="M5 31C3.5 31 1 32.4 1 36C1 39.6 3.5 41 5 41" stroke="#F5F5F5" stroke-width="2"/>
    <path d="M42 30C43.5 30 46 31.4 46 35C46 38.6 43.5 40 42 40" stroke="#F5F5F5" stroke-width="2"/>
    <path d="M5 22V49.7156M41.5 50V22" stroke="#F5F5F5" stroke-width="2"/>
    <path d="M21 47C23.8 47 24 42.5 24 40C24 40 24.0259 47 27 47H38C37.5 44.5 36 39 33 39H15C12.2 39 10.3333 44.3333 10 47H21Z" fill="#595959" stroke="#F5F5F5" stroke-width="2"/>
    <path d="M5.00006 23C7.00006 15.8 15.0867 12.5 19.0867 12.5H27.0854H27.0867C31.0872 12.5008 39.5002 15.8008 41.5 23C41.5 12 43.0867 7 33.5867 7H13.087C3.58704 7 5.00006 12 5.00006 23Z" fill="#595959"/>
    <path d="M27.0854 12.5H27.0867M27.0867 12.5C31.0872 12.5008 39.5002 15.8008 41.5 23C41.5 12 43.0867 7 33.5867 7H13.087C3.58704 7 5.00006 12 5.00006 23C7.00006 15.8 15.0867 12.5 19.0867 12.5H27.0867Z" stroke="#F5F5F5" stroke-width="2"/>
    <rect x="13" y="1" width="20" height="11" rx="5.5" fill="#595959" stroke="#F5F5F5" stroke-width="2"/>
</svg>
