<?xml version="1.0" encoding="utf-8"?>
<!-- Generator: Adobe Illustrator 27.9.0, SVG Export Plug-In . SVG Version: 6.00 Build 0)  -->
<svg version="1.1" id="Layer_1" xmlns="http://www.w3.org/2000/svg" xmlns:xlink="http://www.w3.org/1999/xlink" x="0px" y="0px"
	 viewBox="0 0 47 67" style="enable-background:new 0 0 47 67;" xml:space="preserve">
<style type="text/css">
	.st0{fill:none;stroke:#F2F2F2;stroke-width:2;}
	.st1{fill:none;stroke:#F5F5F5;stroke-width:2;}
	.st2{fill:#595959;stroke:#F5F5F5;stroke-width:2;}
	.st3{fill:#595959;}
</style>
<path class="st0" d="M5,42.5h5.5h31v8C41.5,57,34.5,66,24,66S5,57,5,50.5V42.5z"/>
<path class="st1" d="M5,31c-1.5,0-4,1.4-4,5s2.5,5,4,5"/>
<path class="st1" d="M42,30c1.5,0,4,1.4,4,5s-2.5,5-4,5"/>
<path class="st1" d="M5,22v27.7 M41.5,50V22"/>
<path class="st2" d="M21,47c2.8,0,3-4.5,3-7c0,0,0,7,3,7h11c-0.5-2.5-2-8-5-8H15c-2.8,0-4.7,5.3-5,8H21z"/>
<path class="st3" d="M5,23c2-7.2,10.1-10.5,14.1-10.5h8h0c4,0,12.4,3.3,14.4,10.5c0-11,1.6-16-7.9-16H13.1C3.6,7,5,12,5,23z"/>
<path class="st1" d="M27.1,12.5L27.1,12.5 M27.1,12.5c4,0,12.4,3.3,14.4,10.5c0-11,1.6-16-7.9-16H13.1C3.6,7,5,12,5,23
	c2-7.2,10.1-10.5,14.1-10.5H27.1z"/>
<path class="st2" d="M18.5,1h9c3,0,5.5,2.5,5.5,5.5l0,0c0,3-2.5,5.5-5.5,5.5h-9c-3,0-5.5-2.5-5.5-5.5l0,0C13,3.5,15.5,1,18.5,1z"/>
</svg>
